<svg width="31" height="32" viewBox="0 0 31 32" fill="none" xmlns="http://www.w3.org/2000/svg">
<path d="M9.04188 19.2292C8.44741 19.2292 7.9655 18.7473 7.9655 18.1528C7.9655 17.5583 8.44741 17.0764 9.04188 17.0764C9.63636 17.0764 10.1183 17.5583 10.1183 18.1528C10.1183 18.7473 9.63636 19.2292 9.04188 19.2292Z" fill="#667185"/>
<path d="M12.2711 18.1528C12.2711 18.7473 12.753 19.2292 13.3474 19.2292C13.9419 19.2292 14.4238 18.7473 14.4238 18.1528C14.4238 17.5583 13.9419 17.0764 13.3474 17.0764C12.753 17.0764 12.2711 17.5583 12.2711 18.1528Z" fill="#667185"/>
<path d="M17.653 19.2292C17.0585 19.2292 16.5766 18.7473 16.5766 18.1528C16.5766 17.5583 17.0585 17.0764 17.653 17.0764C18.2475 17.0764 18.7294 17.5583 18.7294 18.1528C18.7294 18.7473 18.2475 19.2292 17.653 19.2292Z" fill="#667185"/>
<path fill-rule="evenodd" clip-rule="evenodd" d="M24.6259 17.5586L21.9547 17.8925C21.9573 17.979 21.9586 18.0657 21.9586 18.1528C21.9586 22.9086 18.1032 26.7639 13.3474 26.7639C12.636 26.7639 11.9434 26.6774 11.28 26.5138L6.6527 25.9354C5.51463 25.7932 4.72371 24.7323 4.91226 23.601L5.1961 21.898L4.98638 20.2202C4.82283 19.5569 4.73633 18.8642 4.73633 18.1528C4.73633 13.397 8.59165 9.54167 13.3474 9.54167C13.4698 9.54167 13.5915 9.54422 13.7126 9.54927C14.597 7.03739 16.9899 5.23611 19.8058 5.23611C23.3726 5.23611 26.2641 8.12761 26.2641 11.6944C26.2641 12.2213 26.2008 12.7347 26.0809 13.2271L25.9389 14.3632L26.1343 15.5355C26.2977 16.5159 25.6122 17.4354 24.6259 17.5586ZM19.8058 7.38889C22.1837 7.38889 24.1113 9.31656 24.1113 11.6944C24.1113 12.0648 24.0648 12.4227 23.9779 12.7633L23.9612 12.8289L23.7954 14.1546C23.7745 14.3224 23.7779 14.4923 23.8057 14.6591L23.9416 15.4746L21.623 15.7645C20.8202 12.9775 18.6476 10.7709 15.8811 9.92047C16.5572 8.42715 18.0613 7.38889 19.8058 7.38889ZM13.3474 11.6944C9.7806 11.6944 6.88911 14.5859 6.88911 18.1528C6.88911 18.7074 6.95878 19.2443 7.08931 19.7557L7.10604 19.8212L7.33468 21.6504C7.35888 21.844 7.35488 22.0401 7.32281 22.2325L7.05879 23.8167L11.679 24.3942L11.7446 24.4109C12.2559 24.5414 12.7928 24.6111 13.3474 24.6111C16.9143 24.6111 19.8058 21.7196 19.8058 18.1528C19.8058 14.5859 16.9143 11.6944 13.3474 11.6944Z" fill="#667185"/>
</svg>
